<?xml version="1.0" encoding="utf-8"?>
<!-- Generator: Adobe Illustrator 24.1.1, SVG Export Plug-In . SVG Version: 6.00 Build 0)  -->
<svg version="1.1" id="레이어_1" xmlns="http://www.w3.org/2000/svg" xmlns:xlink="http://www.w3.org/1999/xlink" x="0px"
	 y="0px" viewBox="0 0 80 40" style="enable-background:new 0 0 80 40;" xml:space="preserve">
<style type="text/css">
	.st0{enable-background:new    ;}
	.st1{fill:#F4A116;}
	.st2{fill:#FFFFFF;}
</style>
<g>
	<g>
		<path d="M7,57.8c0,0.5,0.1,1,0.4,1.6C7.7,60,8,60.5,8.5,61s1,0.9,1.5,1.2c0.6,0.3,1.1,0.5,1.7,0.5c0.5,0,0.9-0.1,1.4-0.2
			c0.4-0.1,0.8-0.3,1.1-0.6s0.6-0.6,0.8-0.9s0.3-0.7,0.3-1.2c0-0.4-0.1-0.8-0.3-1.1s-0.4-0.6-0.7-0.8c-0.3-0.2-0.6-0.4-1-0.6
			c-0.4-0.1-0.8-0.3-1.3-0.4c-1-0.2-1.9-0.6-2.8-1c-0.9-0.4-1.5-1-2-1.6c-0.3-0.4-0.6-0.8-0.7-1.3c-0.1-0.5-0.3-0.9-0.3-1.5
			c0-0.7,0.2-1.4,0.5-2c0.4-0.4,0.8-1,1.3-1.4c0.5-0.5,1.1-0.8,1.8-1.1c0.7-0.3,1.4-0.4,2.2-0.4s1.5,0.1,2.1,0.4s1.3,0.6,1.8,1
			l1.6-1.4v5.5c-0.5-0.7-1-1.4-1.6-1.9c-0.5-0.5-1.1-0.9-1.8-1.3c-0.7-0.4-1.4-0.6-2.2-0.6c-0.7,0-1.3,0.2-1.7,0.5
			c-0.2,0.4-0.4,0.9-0.4,1.5s0.2,1.1,0.6,1.4c0.4,0.3,1,0.6,1.7,0.8c1,0.3,1.8,0.5,2.6,0.8c0.8,0.3,1.5,0.7,2.1,1.3
			c0.5,0.5,0.9,1.1,1.2,1.7c0.3,0.6,0.4,1.3,0.4,2.1s-0.2,1.6-0.5,2.3c-0.3,0.7-0.8,1.4-1.4,1.9c-0.6,0.5-1.3,1-2,1.3
			s-1.6,0.5-2.5,0.5c-0.4,0-0.9,0-1.3-0.1c-0.4-0.1-0.9-0.2-1.3-0.4c-0.5-0.2-0.9-0.4-1.4-0.8c-0.5-0.3-1-0.7-1.6-1.2v-4.2H7V57.8z"
			/>
	</g>
	<path d="M26.1,53.1c0.9,0,1.7,0.1,2.4,0.4c0.7,0.3,1.3,0.7,1.7,1.2c0.4,0.5,0.8,1.1,1,1.8s0.3,1.4,0.3,2.2c0,0.1,0,0.2,0,0.3
		s0,0.2,0,0.3h-6.9c0,0.6,0.1,1.1,0.1,1.5c0.1,0.5,0.2,0.8,0.3,1.2c0.1,0.3,0.3,0.6,0.6,0.8c0.3,0.2,0.6,0.3,1,0.3
		c1.2,0,2.2-0.5,3.1-1.6l0.8,0.8c-0.5,0.7-1.2,1.2-1.9,1.5c-0.7,0.3-1.6,0.6-2.5,0.6c-0.8,0-1.5-0.1-2.2-0.4
		c-0.7-0.3-1.3-0.7-1.8-1.2s-0.9-1.1-1.2-1.8c-0.3-0.7-0.5-1.4-0.5-2.2c0-0.8,0.1-1.5,0.5-2.2c0.3-0.7,0.7-1.3,1.2-1.8
		s1.1-0.9,1.8-1.2C24.6,53.3,25.3,53.1,26.1,53.1z M27.5,58.1c0-0.5-0.1-1-0.1-1.5s-0.1-0.9-0.2-1.2c-0.1-0.3-0.2-0.6-0.4-0.8
		c-0.2-0.2-0.4-0.3-0.7-0.3s-0.5,0.1-0.7,0.3c-0.2,0.2-0.3,0.5-0.4,0.8s-0.2,0.7-0.3,1.2s-0.1,1-0.1,1.5H27.5z"/>
	<path d="M39.6,53.2c0.9,0,1.7,0.1,2.4,0.4s1.4,0.7,1.9,1.2s1,1.1,1.3,1.8c0.3,0.7,0.5,1.4,0.5,2.2c0,0.8-0.2,1.5-0.5,2.2
		s-0.7,1.3-1.3,1.8c-0.5,0.5-1.2,0.9-1.9,1.2c-0.7,0.3-1.5,0.4-2.4,0.4s-1.7-0.1-2.4-0.4c-0.7-0.3-1.4-0.7-1.9-1.2s-1-1.1-1.3-1.8
		s-0.5-1.4-0.5-2.2c0-0.8,0.2-1.5,0.5-2.2s0.7-1.3,1.3-1.8c0.5-0.5,1.2-0.9,1.9-1.2C37.9,53.4,38.7,53.2,39.6,53.2z M39.6,63.3
		c0.4,0,0.6-0.1,0.9-0.4c0.3-0.2,0.5-0.5,0.6-0.9c0.2-0.4,0.3-0.9,0.4-1.4c0.1-0.5,0.1-1.1,0.1-1.7c0-0.6,0-1.2-0.1-1.7
		s-0.2-1-0.4-1.4c-0.2-0.4-0.4-0.7-0.6-1s-0.5-0.4-0.9-0.4c-0.4,0-0.7,0.1-0.9,0.3c-0.3,0.2-0.5,0.5-0.6,1c-0.2,0.4-0.3,0.9-0.4,1.4
		c-0.1,0.5-0.1,1.1-0.1,1.7c0,0.6,0,1.2,0.1,1.7s0.2,1,0.4,1.4c0.2,0.4,0.4,0.7,0.6,0.9C38.9,63.2,39.3,63.3,39.6,63.3z"/>
	<g class="st0">
		<path d="M53.1,46.6v18.8c0,0.7-0.1,1.3-0.4,1.8c-0.3,0.8-0.9,1.5-1.7,2.1c-0.8,0.5-1.7,0.8-2.6,0.8l-1.7-1.4h0.9
			c0.4,0,0.7-0.1,1-0.4c0.3-0.3,0.4-0.6,0.4-1V48l-1.4-1.4H53.1z"/>
	</g>
	<g>
		<polygon points="61.5,53.1 61.5,64.4 57.5,64.4 57.5,54.6 56.1,53.1 		"/>
		<path class="st1" d="M59.2,47c0.3,0,0.6,0.1,0.9,0.2c0.3,0.1,0.5,0.3,0.8,0.5c0.2,0.2,0.4,0.5,0.5,0.8s0.2,0.6,0.2,0.9
			c0,0.3-0.1,0.6-0.2,0.9c-0.1,0.3-0.3,0.5-0.5,0.8c-0.2,0.2-0.5,0.4-0.8,0.5c-0.3,0.1-0.6,0.2-0.9,0.2c-0.3,0-0.6-0.1-0.9-0.2
			c-0.3-0.1-0.5-0.3-0.8-0.5c-0.2-0.2-0.4-0.5-0.5-0.8c-0.1-0.2-0.1-0.6-0.1-0.9c0-0.3,0.1-0.6,0.2-0.9c0.1-0.3,0.3-0.5,0.5-0.8
			c0.2-0.2,0.5-0.4,0.8-0.5C58.6,47.1,58.9,47,59.2,47z"/>
	</g>
	<path d="M73.4,53c0.6,0,1.3,0.1,1.8,0.4c0.5,0.3,1.1,0.6,1.5,1c0.4,0.4,0.8,0.9,1,1.5c0.2,0.6,0.4,1.2,0.4,1.8v6.6H74v-6.4
		c0-0.5,0-0.9-0.1-1.3c-0.1-0.4-0.2-0.8-0.3-1.1c-0.1-0.3-0.3-0.5-0.6-0.7c-0.2-0.2-0.5-0.3-0.8-0.3c-0.5,0-1,0.2-1.4,0.7
		s-0.7,1.1-0.8,1.9v7.3h-4v-9.8l-1.4-1.4h5.5V55c0.5-0.5,0.9-1,1.4-1.3S72.7,53,73.4,53z"/>
</g>
<g>
	<path d="M5.2,19.4c0,0.5,0.1,1,0.4,1.6c0.3,0.6,0.6,1.1,1.1,1.6c0.5,0.5,1,0.9,1.5,1.2c0.6,0.3,1.1,0.5,1.7,0.5
		c0.5,0,0.9-0.1,1.4-0.2c0.4-0.1,0.8-0.3,1.1-0.6c0.3-0.3,0.6-0.5,0.8-0.9c0.2-0.3,0.3-0.7,0.3-1.2c0-0.4-0.1-0.8-0.3-1.1
		s-0.4-0.6-0.7-0.8c-0.3-0.2-0.6-0.4-1-0.6s-0.8-0.3-1.3-0.4c-1-0.2-1.9-0.6-2.8-1s-1.5-1-2-1.6c-0.3-0.4-0.6-0.8-0.7-1.3
		c-0.2-0.4-0.3-0.9-0.3-1.5c0-0.7,0.2-1.4,0.5-2c0.3-0.6,0.7-1.2,1.2-1.6C6.7,9.1,7.3,8.8,8,8.5c0.7-0.3,1.4-0.4,2.2-0.4
		c0.8,0,1.5,0.1,2.1,0.4s1.3,0.6,1.8,1l1.6-1.4v5.6c-0.5-0.7-1-1.4-1.6-1.9c-0.5-0.5-1.1-0.9-1.8-1.3C11.7,10,11,9.8,10.2,9.8
		C9.5,9.8,9,10,8.5,10.4c-0.4,0.4-0.6,0.9-0.6,1.5c0,0.6,0.2,1.1,0.6,1.4c0.4,0.3,1,0.6,1.7,0.8c1,0.3,1.8,0.5,2.6,0.8
		c0.8,0.3,1.5,0.7,2.1,1.3c0.5,0.5,0.9,1.1,1.2,1.7c0.3,0.6,0.4,1.3,0.4,2.1c0,0.8-0.2,1.6-0.5,2.3c-0.3,0.7-0.8,1.4-1.4,1.9
		c-0.6,0.5-1.3,1-2,1.3S11.1,26,10.2,26c-0.4,0-0.9,0-1.3-0.1c-0.4-0.1-0.9-0.2-1.3-0.4c-0.5-0.2-0.9-0.4-1.4-0.8
		c-0.5-0.3-1-0.7-1.6-1.2v-4.2H5.2z"/>
	<path d="M24.3,14.5c0.9,0,1.7,0.1,2.4,0.4c0.7,0.3,1.3,0.7,1.7,1.2c0.4,0.5,0.8,1.1,1,1.8s0.3,1.4,0.3,2.2c0,0.1,0,0.2,0,0.3
		c0,0.1,0,0.2,0,0.3h-6.9c0,0.5,0.1,1,0.1,1.5c0.1,0.4,0.2,0.8,0.3,1.2c0.1,0.3,0.3,0.6,0.6,0.8c0.2,0.2,0.6,0.3,1,0.3
		c1.2,0,2.2-0.5,3.1-1.6l0.8,0.8c-0.5,0.7-1.2,1.2-1.9,1.5s-1.6,0.6-2.5,0.6c-0.8,0-1.5-0.1-2.2-0.4c-0.7-0.3-1.3-0.7-1.8-1.2
		c-0.5-0.5-0.9-1.1-1.2-1.8c-0.3-0.7-0.5-1.4-0.5-2.2s0.1-1.5,0.5-2.2c0.3-0.7,0.7-1.3,1.2-1.8c0.5-0.5,1.1-0.9,1.8-1.2
		C22.7,14.6,23.5,14.5,24.3,14.5z M25.7,19.5c0-0.5-0.1-1-0.1-1.5c0-0.5-0.1-0.9-0.2-1.2c-0.1-0.3-0.2-0.6-0.4-0.8
		c-0.2-0.2-0.4-0.3-0.7-0.3c-0.3,0-0.5,0.1-0.7,0.3s-0.3,0.5-0.4,0.8c-0.1,0.3-0.2,0.7-0.3,1.2c-0.1,0.5-0.1,1-0.1,1.5H25.7z"/>
	<path d="M37.9,14.5c0.9,0,1.7,0.1,2.4,0.4c0.7,0.3,1.4,0.7,1.9,1.2c0.5,0.5,1,1.1,1.3,1.8c0.3,0.7,0.5,1.4,0.5,2.2
		s-0.2,1.5-0.5,2.2c-0.3,0.7-0.7,1.3-1.3,1.8c-0.5,0.5-1.2,0.9-1.9,1.2c-0.7,0.3-1.5,0.4-2.4,0.4c-0.9,0-1.7-0.1-2.4-0.4
		c-0.7-0.3-1.4-0.7-1.9-1.2s-1-1.1-1.3-1.8c-0.3-0.7-0.5-1.4-0.5-2.2s0.2-1.5,0.5-2.2c0.3-0.7,0.7-1.3,1.3-1.8s1.2-0.9,1.9-1.2
		C36.2,14.6,37,14.5,37.9,14.5z M37.9,24.5c0.4,0,0.7-0.1,0.9-0.3c0.3-0.2,0.5-0.6,0.6-1c0.2-0.4,0.3-0.9,0.4-1.4
		c0.1-0.5,0.1-1.1,0.1-1.7s0-1.2-0.1-1.7c-0.1-0.5-0.2-1-0.4-1.4s-0.4-0.7-0.6-1c-0.3-0.2-0.5-0.3-0.9-0.3c-0.4,0-0.7,0.1-0.9,0.3
		c-0.3,0.2-0.5,0.6-0.6,1s-0.3,0.9-0.3,1.4s-0.1,1.1-0.1,1.7s0,1.2,0.1,1.7c0.1,0.5,0.2,1,0.3,1.4c0.2,0.4,0.4,0.7,0.6,1
		C37.2,24.4,37.5,24.5,37.9,24.5z"/>
	<path d="M52.1,8.4v18.8c0,0.7-0.1,1.3-0.4,1.8c-0.3,0.8-0.9,1.5-1.7,2.1c-0.8,0.5-1.7,0.8-2.6,0.8l-1.7-1.4h0.9
		c0.4,0,0.7-0.1,1-0.4s0.4-0.6,0.4-1V9.8l-1.4-1.4H52.1z"/>
	<polygon points="60.1,14.5 60.1,25.7 56,25.7 56,15.9 54.6,14.5 	"/>
	<path class="st2" d="M57.8,8.4c0.3,0,0.6,0.1,0.9,0.2c0.3,0.1,0.5,0.3,0.8,0.5c0.2,0.2,0.4,0.5,0.5,0.8c0.1,0.3,0.2,0.6,0.2,0.9
		c0,0.3-0.1,0.6-0.2,0.9c-0.1,0.3-0.3,0.5-0.5,0.8c-0.2,0.2-0.5,0.4-0.8,0.5c-0.3,0.1-0.6,0.2-0.9,0.2c-0.3,0-0.6-0.1-0.9-0.2
		s-0.5-0.3-0.8-0.5c-0.2-0.2-0.4-0.5-0.5-0.8c-0.1-0.3-0.2-0.6-0.2-0.9c0-0.3,0.1-0.6,0.2-0.9c0.1-0.3,0.3-0.5,0.5-0.8
		c0.2-0.2,0.5-0.4,0.8-0.5S57.4,8.4,57.8,8.4z"/>
	<path d="M70.7,14.5c0.6,0,1.3,0.1,1.8,0.4c0.6,0.2,1.1,0.6,1.5,1c0.4,0.4,0.8,0.9,1,1.5c0.3,0.6,0.4,1.2,0.4,1.8v6.5h-4.1v-6.4
		c0-0.5,0-0.9-0.1-1.3c-0.1-0.4-0.2-0.8-0.3-1.1c-0.2-0.3-0.3-0.5-0.6-0.7c-0.2-0.2-0.5-0.3-0.8-0.3c-0.5,0-1,0.2-1.4,0.7
		c-0.4,0.5-0.7,1.1-0.8,1.9v7.3h-4v-9.8l-1.4-1.4h5.5v1.8c0.5-0.5,0.9-1,1.4-1.3C69.3,14.6,69.9,14.5,70.7,14.5z"/>
</g>
</svg>
