<?xml version="1.0" encoding="utf-8"?>
<!-- Generator: Adobe Illustrator 24.1.2, SVG Export Plug-In . SVG Version: 6.00 Build 0)  -->
<svg version="1.1" id="Layer_1" xmlns="http://www.w3.org/2000/svg" xmlns:xlink="http://www.w3.org/1999/xlink" x="0px" y="0px"
	 viewBox="0 0 100 50" style="enable-background:new 0 0 100 50;" xml:space="preserve">
<style type="text/css">
	.st0{fill:#FCDE76;stroke:#000000;stroke-width:0.5;stroke-miterlimit:10;}
</style>
<path d="M11.4,19.65c-0.02,0.47,0.25,0.87,0.8,1.2c0.55,0.33,1.33,0.67,2.33,1l1.23,0.42c0.73,0.27,1.4,0.6,1.99,1
	c0.59,0.4,1.1,0.87,1.51,1.41c0.42,0.54,0.73,1.15,0.92,1.82c0.2,0.68,0.27,1.41,0.23,2.21c-0.12,1.78-0.84,3.17-2.16,4.15
	c-1.32,0.98-3.13,1.47-5.41,1.47c-1.12,0-2.19-0.12-3.22-0.36c-1.03-0.24-1.89-0.63-2.58-1.16c-0.23-0.2-0.43-0.43-0.6-0.69
	c-0.17-0.26-0.29-0.53-0.36-0.81c-0.08-0.28-0.09-0.58-0.04-0.89s0.17-0.6,0.35-0.89c0.18-0.28,0.44-0.5,0.77-0.65
	c0.33-0.15,0.67-0.23,1-0.25c0.43-0.02,0.78,0.05,1.04,0.2c0.26,0.15,0.5,0.29,0.74,0.42c0.28,0.18,0.65,0.34,1.1,0.46
	s1.1,0.19,1.95,0.19c0.7,0,1.24-0.13,1.63-0.38c0.38-0.25,0.58-0.65,0.6-1.2c0-0.23-0.09-0.46-0.27-0.68
	c-0.18-0.22-0.45-0.42-0.79-0.6s-0.74-0.36-1.19-0.54c-0.45-0.18-0.93-0.35-1.45-0.51c-0.2-0.07-0.41-0.14-0.64-0.23
	c-0.23-0.08-0.41-0.16-0.56-0.23c-0.95-0.4-1.72-0.9-2.3-1.49c-0.58-0.59-1.02-1.23-1.31-1.92c-0.29-0.69-0.44-1.4-0.45-2.14
	s0.1-1.42,0.31-2.08c0.43-1.35,1.24-2.39,2.41-3.13c1.17-0.73,2.62-1.1,4.34-1.1c0.65,0,1.22,0.03,1.71,0.09
	c0.49,0.06,0.93,0.13,1.3,0.23s0.7,0.2,0.98,0.32c0.27,0.13,0.53,0.25,0.76,0.36c0.58,0.32,1.04,0.76,1.36,1.32
	c0.32,0.57,0.4,1.15,0.21,1.75c-0.17,0.52-0.45,0.88-0.84,1.1c-0.39,0.22-0.83,0.33-1.31,0.33c-0.18,0-0.39-0.03-0.63-0.1
	c-0.23-0.07-0.41-0.14-0.53-0.23c-0.3-0.2-0.68-0.38-1.15-0.52c-0.47-0.15-1.07-0.23-1.82-0.23c-0.6,0-1.07,0.12-1.41,0.36
	C11.6,18.76,11.42,19.13,11.4,19.65z"/>
<path d="M29.73,34.35c-0.9,0-1.81-0.12-2.73-0.35c-0.92-0.23-1.75-0.62-2.49-1.15c-0.74-0.53-1.34-1.25-1.8-2.14
	s-0.69-1.99-0.69-3.29v-2.2c0-1.33,0.22-2.44,0.66-3.33c0.44-0.88,1.01-1.59,1.7-2.13c0.69-0.53,1.46-0.91,2.3-1.14
	c0.84-0.22,1.66-0.34,2.46-0.34c0.87,0,1.71,0.1,2.54,0.31c0.83,0.21,1.56,0.6,2.21,1.19c0.65,0.58,1.17,1.4,1.56,2.44
	c0.39,1.04,0.59,2.39,0.59,4.04c0,0.22-0.01,0.48-0.04,0.77c-0.02,0.3-0.05,0.56-0.09,0.78h-8.95v0.03c0,0.43,0.09,0.79,0.27,1.07
	c0.18,0.28,0.42,0.52,0.7,0.7c0.28,0.18,0.59,0.31,0.92,0.39c0.33,0.08,0.65,0.11,0.95,0.11c0.62,0,1.09-0.03,1.42-0.08
	c0.33-0.05,0.67-0.13,1-0.25c0.18-0.07,0.37-0.14,0.56-0.21c0.19-0.08,0.4-0.13,0.61-0.16c0.43-0.05,0.83,0,1.19,0.15
	c0.36,0.15,0.62,0.42,0.79,0.8c0.27,0.62,0.27,1.18,0.01,1.69c-0.26,0.51-0.69,0.94-1.29,1.29c-0.2,0.12-0.45,0.23-0.76,0.35
	c-0.31,0.12-0.66,0.22-1.05,0.33s-0.81,0.18-1.25,0.24C30.62,34.32,30.18,34.35,29.73,34.35z M29.18,22.35
	c-0.28,0-0.55,0.04-0.81,0.11c-0.26,0.08-0.49,0.2-0.69,0.38c-0.2,0.17-0.37,0.4-0.5,0.67c-0.13,0.28-0.2,0.62-0.2,1.04h4.23
	c0.02-0.42-0.03-0.76-0.14-1.04c-0.11-0.27-0.25-0.5-0.44-0.67c-0.18-0.17-0.4-0.3-0.66-0.38S29.44,22.35,29.18,22.35z"/>
<path d="M38.1,25.18c0-1.35,0.22-2.47,0.65-3.35c0.43-0.88,1-1.59,1.7-2.13c0.7-0.53,1.48-0.91,2.34-1.13
	c0.86-0.22,1.71-0.32,2.56-0.32c0.83,0,1.68,0.11,2.54,0.32c0.86,0.22,1.64,0.59,2.34,1.13c0.7,0.53,1.27,1.24,1.71,2.13
	c0.44,0.88,0.66,2,0.66,3.35v2.3c0,1.35-0.22,2.47-0.66,3.35c-0.44,0.88-1.01,1.59-1.71,2.13s-1.48,0.91-2.34,1.13
	c-0.86,0.22-1.71,0.33-2.54,0.33s-1.68-0.11-2.54-0.33s-1.64-0.59-2.34-1.13s-1.27-1.24-1.71-2.13c-0.44-0.88-0.66-2-0.66-3.35
	V25.18z M47.58,24.95c0-0.45-0.07-0.83-0.2-1.14c-0.13-0.31-0.3-0.56-0.51-0.76c-0.21-0.2-0.45-0.35-0.71-0.44
	c-0.27-0.09-0.53-0.14-0.8-0.14s-0.53,0.05-0.8,0.14c-0.27,0.09-0.5,0.24-0.71,0.44c-0.21,0.2-0.38,0.45-0.51,0.76
	c-0.13,0.31-0.2,0.69-0.2,1.14v2.75c0,0.45,0.07,0.83,0.2,1.14c0.13,0.31,0.3,0.56,0.51,0.76c0.21,0.2,0.45,0.35,0.71,0.44
	s0.53,0.14,0.8,0.14s0.53-0.04,0.8-0.14s0.5-0.24,0.71-0.44c0.21-0.2,0.38-0.45,0.51-0.76c0.13-0.31,0.2-0.69,0.2-1.14V24.95z"/>
<path d="M62.55,16.18c0-0.42,0.07-0.78,0.21-1.1c0.14-0.32,0.33-0.57,0.56-0.77c0.23-0.2,0.5-0.35,0.81-0.45
	c0.31-0.1,0.64-0.15,0.99-0.15c0.7,0,1.3,0.2,1.81,0.6c0.51,0.4,0.76,1.02,0.76,1.88v10.58c0,1.37-0.2,2.53-0.6,3.5
	c-0.4,0.97-0.95,1.75-1.64,2.36c-0.69,0.61-1.49,1.05-2.4,1.33c-0.91,0.27-1.87,0.41-2.89,0.41c-0.53,0-1.09-0.04-1.68-0.13
	c-0.58-0.08-1.15-0.22-1.69-0.41c-0.54-0.19-1.05-0.44-1.51-0.75c-0.47-0.31-0.86-0.69-1.18-1.14c-0.17-0.23-0.29-0.49-0.36-0.77
	c-0.08-0.28-0.1-0.57-0.08-0.85c0.03-0.28,0.1-0.55,0.23-0.8s0.31-0.46,0.56-0.63c0.37-0.28,0.77-0.45,1.2-0.49
	c0.43-0.04,0.84-0.01,1.22,0.09c0.23,0.07,0.43,0.16,0.59,0.29c0.16,0.13,0.33,0.25,0.51,0.36c0.17,0.1,0.31,0.19,0.44,0.26
	c0.13,0.08,0.26,0.14,0.41,0.19c0.15,0.05,0.32,0.09,0.5,0.11c0.18,0.02,0.42,0.04,0.7,0.04c0.72,0,1.31-0.24,1.79-0.71
	s0.71-1.29,0.71-2.44V16.18z"/>
<path class="st0" d="M70.3,15.1c0-0.82,0.26-1.4,0.78-1.76s1.13-0.54,1.83-0.54s1.31,0.18,1.83,0.54c0.52,0.36,0.77,0.95,0.77,1.76
	c0,0.42-0.07,0.77-0.21,1.06c-0.14,0.29-0.33,0.53-0.56,0.71c-0.23,0.18-0.51,0.32-0.83,0.4c-0.32,0.08-0.65,0.13-1,0.13
	c-0.35,0-0.68-0.04-1-0.13c-0.32-0.08-0.59-0.22-0.83-0.4c-0.23-0.18-0.42-0.42-0.56-0.71S70.3,15.52,70.3,15.1z"/>
<path d="M70.33,20.98c0-0.87,0.25-1.5,0.76-1.9c0.51-0.4,1.11-0.6,1.81-0.6s1.3,0.2,1.81,0.6c0.51,0.4,0.76,1.03,0.76,1.9v12.95
	h-5.15V20.98z"/>
<path d="M78.1,33.93V20.8c0-0.42,0.07-0.78,0.21-1.09c0.14-0.31,0.33-0.57,0.56-0.77c0.23-0.21,0.5-0.37,0.8-0.48
	s0.62-0.16,0.95-0.16c0.48,0,0.94,0.12,1.36,0.35s0.75,0.58,0.96,1.02c0.48-0.45,1.05-0.79,1.69-1.02s1.3-0.35,1.96-0.35
	c0.8,0,1.55,0.11,2.24,0.33c0.69,0.22,1.29,0.59,1.8,1.11c0.51,0.52,0.91,1.23,1.21,2.11s0.45,1.98,0.45,3.3v8.77h-5.15v-9.07
	c0-0.42-0.06-0.77-0.19-1.06s-0.28-0.53-0.47-0.71c-0.19-0.18-0.4-0.31-0.64-0.39c-0.23-0.08-0.46-0.11-0.67-0.11
	c-0.22,0-0.44,0.04-0.67,0.11c-0.23,0.07-0.45,0.2-0.65,0.39c-0.2,0.18-0.36,0.42-0.49,0.71s-0.19,0.65-0.19,1.06v9.07H78.1z"/>
<g>
	<ellipse cx="71.61" cy="14.5" rx="0.21" ry="0.25"/>
	<ellipse cx="74.19" cy="14.5" rx="0.21" ry="0.25"/>
</g>
</svg>
