<?xml version="1.0" encoding="utf-8"?>
<!-- Generator: Adobe Illustrator 24.1.2, SVG Export Plug-In . SVG Version: 6.00 Build 0)  -->
<svg version="1.1" id="레이어_1" xmlns="http://www.w3.org/2000/svg" xmlns:xlink="http://www.w3.org/1999/xlink" x="0px"
	 y="0px" viewBox="0 0 80 40" style="enable-background:new 0 0 80 40;" xml:space="preserve">
<style type="text/css">
	.st0{fill:#FFFFFF;}
	.st1{enable-background:new    ;}
</style>
<g>
	<path class="st0" d="M5.8,22.3c0,0.5,0.1,1,0.4,1.6s0.6,1.1,1.1,1.6s1,0.9,1.5,1.2c0.6,0.3,1.1,0.5,1.7,0.5c0.5,0,0.9-0.1,1.4-0.2
		c0.4-0.1,0.8-0.3,1.1-0.6c0.3-0.3,0.6-0.6,0.8-0.9s0.3-0.7,0.3-1.2c0-0.4-0.1-0.8-0.3-1.1c-0.2-0.3-0.4-0.6-0.7-0.8
		c-0.3-0.2-0.6-0.4-1-0.6c-0.4-0.1-0.8-0.3-1.3-0.4c-1-0.2-1.9-0.6-2.8-1s-1.5-1-2-1.6c-0.3-0.4-0.6-0.8-0.7-1.3C5.2,17,5,16.6,5,16
		c0-0.7,0.2-1.4,0.5-2c0.4-0.4,0.8-1,1.3-1.4c0.5-0.5,1.1-0.8,1.8-1.1s1.4-0.4,2.2-0.4s1.5,0.1,2.1,0.4c0.6,0.3,1.3,0.6,1.8,1
		l1.6-1.4v5.5c-0.5-0.7-1-1.4-1.6-1.9c-0.5-0.5-1.1-0.9-1.8-1.3c-0.7-0.4-1.4-0.6-2.2-0.6C10,12.8,9.4,13,9,13.3
		c-0.2,0.4-0.4,0.9-0.4,1.5s0.2,1.1,0.6,1.4c0.4,0.3,1,0.6,1.7,0.8c1,0.3,1.8,0.5,2.6,0.8s1.5,0.7,2.1,1.3c0.5,0.5,0.9,1.1,1.2,1.7
		c0.3,0.6,0.4,1.3,0.4,2.1c0,0.8-0.2,1.6-0.5,2.3c-0.3,0.7-0.8,1.4-1.4,1.9s-1.3,1-2,1.3s-1.6,0.5-2.5,0.5c-0.4,0-0.9,0-1.3-0.1
		c-0.4-0.1-0.9-0.2-1.3-0.4c-0.5-0.2-0.9-0.4-1.4-0.8c-0.5-0.3-1-0.7-1.6-1.2v-4.2h0.6C5.8,22.2,5.8,22.3,5.8,22.3z"/>
</g>
<path class="st0" d="M24.9,17.6c0.9,0,1.7,0.1,2.4,0.4c0.7,0.3,1.3,0.7,1.7,1.2c0.4,0.5,0.8,1.1,1,1.8c0.2,0.7,0.3,1.4,0.3,2.2
	c0,0.1,0,0.2,0,0.3c0,0.1,0,0.2,0,0.3h-6.9c0,0.6,0.1,1.1,0.1,1.5c0.1,0.5,0.2,0.8,0.3,1.2c0.1,0.3,0.3,0.6,0.6,0.8
	c0.3,0.2,0.6,0.3,1,0.3c1.2,0,2.2-0.5,3.1-1.6l0.8,0.8c-0.5,0.7-1.2,1.2-1.9,1.5s-1.6,0.6-2.5,0.6c-0.8,0-1.5-0.1-2.2-0.4
	s-1.3-0.7-1.8-1.2s-0.9-1.1-1.2-1.8c-0.3-0.7-0.5-1.4-0.5-2.2c0-0.8,0.1-1.5,0.5-2.2c0.3-0.7,0.7-1.3,1.2-1.8s1.1-0.9,1.8-1.2
	C23.4,17.8,24.1,17.6,24.9,17.6z M26.3,22.6c0-0.5-0.1-1-0.1-1.5s-0.1-0.9-0.2-1.2c-0.1-0.3-0.2-0.6-0.4-0.8s-0.4-0.3-0.7-0.3
	s-0.5,0.1-0.7,0.3s-0.3,0.5-0.4,0.8s-0.2,0.7-0.3,1.2s-0.1,1-0.1,1.5H26.3z"/>
<path class="st0" d="M38.4,17.7c0.9,0,1.7,0.1,2.4,0.4s1.4,0.7,1.9,1.2s1,1.1,1.3,1.8c0.3,0.7,0.5,1.4,0.5,2.2
	c0,0.8-0.2,1.5-0.5,2.2s-0.7,1.3-1.3,1.8c-0.5,0.5-1.2,0.9-1.9,1.2c-0.7,0.3-1.5,0.4-2.4,0.4s-1.7-0.1-2.4-0.4s-1.4-0.7-1.9-1.2
	s-1-1.1-1.3-1.8c-0.3-0.7-0.5-1.4-0.5-2.2c0-0.8,0.2-1.5,0.5-2.2s0.7-1.3,1.3-1.8c0.5-0.5,1.2-0.9,1.9-1.2
	C36.7,17.9,37.5,17.7,38.4,17.7z M38.4,27.8c0.4,0,0.6-0.1,0.9-0.4c0.3-0.2,0.5-0.5,0.6-0.9c0.2-0.4,0.3-0.9,0.4-1.4
	c0.1-0.5,0.1-1.1,0.1-1.7s0-1.2-0.1-1.7s-0.2-1-0.4-1.4s-0.4-0.7-0.6-1s-0.5-0.4-0.9-0.4s-0.7,0.1-0.9,0.3c-0.3,0.2-0.5,0.5-0.6,1
	c-0.2,0.4-0.3,0.9-0.4,1.4c-0.1,0.5-0.1,1.1-0.1,1.7s0,1.2,0.1,1.7s0.2,1,0.4,1.4s0.4,0.7,0.6,0.9C37.7,27.7,38.1,27.8,38.4,27.8z"
	/>
<g class="st1">
	<path class="st0" d="M52,11.1v18.8c0,0.7-0.1,1.3-0.4,1.8c-0.3,0.8-0.9,1.5-1.7,2.1c-0.8,0.5-1.7,0.8-2.6,0.8l-1.7-1.4h0.9
		c0.4,0,0.7-0.1,1-0.4c0.3-0.3,0.4-0.6,0.4-1V12.5l-1.4-1.4H52z"/>
</g>
<polygon class="st0" points="60.3,17.6 60.3,28.9 56.3,28.9 56.3,19.1 55,17.6 "/>
<path d="M58,11.5c0.3,0,0.6,0.1,0.9,0.2c0.3,0.1,0.5,0.3,0.8,0.5c0.2,0.2,0.4,0.5,0.5,0.8s0.2,0.6,0.2,0.9c0,0.3-0.1,0.6-0.2,0.9
	c-0.1,0.3-0.3,0.5-0.5,0.8c-0.2,0.2-0.5,0.4-0.8,0.5c-0.3,0.1-0.6,0.2-0.9,0.2c-0.3,0-0.6-0.1-0.9-0.2c-0.3-0.1-0.5-0.3-0.8-0.5
	c-0.2-0.2-0.4-0.5-0.5-0.8c-0.1-0.2-0.1-0.6-0.1-0.9c0-0.3,0.1-0.6,0.2-0.9c0.1-0.3,0.3-0.5,0.5-0.8c0.2-0.2,0.5-0.4,0.8-0.5
	C57.5,11.6,57.8,11.5,58,11.5z"/>
<path class="st0" d="M72.3,17.5c0.6,0,1.3,0.1,1.8,0.4s1.1,0.6,1.5,1s0.8,0.9,1,1.5s0.4,1.2,0.4,1.8v6.6h-4.1v-6.4
	c0-0.5,0-0.9-0.1-1.3s-0.2-0.8-0.3-1.1c-0.1-0.3-0.3-0.5-0.6-0.7c-0.2-0.2-0.5-0.3-0.8-0.3c-0.5,0-1,0.2-1.4,0.7s-0.7,1.1-0.8,1.9
	v7.3h-4v-9.8l-1.4-1.4H69v1.8c0.5-0.5,0.9-1,1.4-1.3S71.6,17.5,72.3,17.5z"/>
</svg>
