<svg id="레이어_1" data-name="레이어 1" xmlns="http://www.w3.org/2000/svg" viewBox="0 0 73.59 62.03"><defs><style>.cls-1{isolation:isolate;}.cls-2{fill:#f4a116;}</style></defs><path d="M7,57.82a3.43,3.43,0,0,0,.4,1.6A5.72,5.72,0,0,0,8.45,61a7.89,7.89,0,0,0,1.5,1.2,3.69,3.69,0,0,0,1.7.5,6.75,6.75,0,0,0,1.4-.2,2.38,2.38,0,0,0,1.1-.6A6.47,6.47,0,0,0,15,61a2.13,2.13,0,0,0,.3-1.2,2,2,0,0,0-.3-1.1,2.7,2.7,0,0,0-.7-.8,8.79,8.79,0,0,0-1-.6c-.4-.1-.8-.3-1.3-.4a13.32,13.32,0,0,1-2.8-1,5.45,5.45,0,0,1-2-1.6,3.29,3.29,0,0,1-.7-1.3,6.64,6.64,0,0,1-.3-1.5,4.55,4.55,0,0,1,.5-2A16.61,16.61,0,0,1,8,48.12,5.44,5.44,0,0,1,9.75,47a5.38,5.38,0,0,1,2.2-.4,4.64,4.64,0,0,1,2.1.4,10.42,10.42,0,0,1,1.8,1l1.6-1.4v5.5a10,10,0,0,0-1.6-1.9,8.32,8.32,0,0,0-1.8-1.3,4.28,4.28,0,0,0-2.2-.6,2.86,2.86,0,0,0-1.7.5,3.31,3.31,0,0,0-.4,1.5,1.68,1.68,0,0,0,.6,1.4,5.39,5.39,0,0,0,1.7.8c1,.3,1.8.5,2.6.8a5.71,5.71,0,0,1,2.1,1.3,6.57,6.57,0,0,1,1.2,1.7,4.64,4.64,0,0,1,.4,2.1,5.93,5.93,0,0,1-.5,2.3,5.22,5.22,0,0,1-1.4,1.9,8.58,8.58,0,0,1-2,1.3,6.55,6.55,0,0,1-2.5.5,5.7,5.7,0,0,1-1.3-.1,6.47,6.47,0,0,1-1.3-.4,5,5,0,0,1-1.4-.8,13.28,13.28,0,0,1-1.6-1.2v-4.2H7Z" transform="translate(-4.46 -8.09)"/><path d="M26.05,53.12a6.05,6.05,0,0,1,2.4.4,4.34,4.34,0,0,1,1.7,1.2,5.24,5.24,0,0,1,1,1.8,7.8,7.8,0,0,1,.3,2.2v.6h-6.9c0,.6.1,1.1.1,1.5s.2.8.3,1.2a1.56,1.56,0,0,0,.6.8,1.69,1.69,0,0,0,1,.3,3.84,3.84,0,0,0,3.1-1.6l.8.8a4.54,4.54,0,0,1-1.9,1.5,6.57,6.57,0,0,1-2.5.6,5.38,5.38,0,0,1-2.2-.4,5.52,5.52,0,0,1-3-3,5.45,5.45,0,0,1-.5-2.2,4.19,4.19,0,0,1,.5-2.2,5.52,5.52,0,0,1,3-3A5.45,5.45,0,0,1,26.05,53.12Zm1.4,5c0-.5-.1-1-.1-1.5a3.73,3.73,0,0,0-.2-1.2,2,2,0,0,0-.4-.8,1,1,0,0,0-1.4,0,2,2,0,0,0-.4.8,10.38,10.38,0,0,0-.3,1.2,7.57,7.57,0,0,0-.1,1.5Z" transform="translate(-4.46 -8.09)"/><path d="M39.55,53.22a6.05,6.05,0,0,1,2.4.4,6.15,6.15,0,0,1,1.9,1.2,5.94,5.94,0,0,1,1.3,1.8,5.09,5.09,0,0,1,0,4.4,4.63,4.63,0,0,1-1.3,1.8A6.15,6.15,0,0,1,42,64a6.05,6.05,0,0,1-2.4.4,6.05,6.05,0,0,1-2.4-.4,6.15,6.15,0,0,1-1.9-1.2A5.94,5.94,0,0,1,34,61a5.09,5.09,0,0,1,0-4.4,4.63,4.63,0,0,1,1.3-1.8,6.15,6.15,0,0,1,1.9-1.2A8.6,8.6,0,0,1,39.55,53.22Zm0,10.1a1.09,1.09,0,0,0,.9-.4,1.46,1.46,0,0,0,.6-.9,5.73,5.73,0,0,0,.4-1.4,9.15,9.15,0,0,0,.1-1.7,9.15,9.15,0,0,0-.1-1.7,5.73,5.73,0,0,0-.4-1.4,8.79,8.79,0,0,0-.6-1,1,1,0,0,0-.9-.4,1.22,1.22,0,0,0-.9.3,1.44,1.44,0,0,0-.6,1,5.73,5.73,0,0,0-.4,1.4,9.15,9.15,0,0,0-.1,1.7,9.15,9.15,0,0,0,.1,1.7,5.73,5.73,0,0,0,.4,1.4,3.49,3.49,0,0,0,.6.9A1,1,0,0,0,39.55,63.32Z" transform="translate(-4.46 -8.09)"/><g class="cls-1"><path d="M53.05,46.62v18.8a3.42,3.42,0,0,1-.4,1.8,4.82,4.82,0,0,1-1.7,2.1,5,5,0,0,1-2.6.8l-1.7-1.4h.9a1.37,1.37,0,0,0,1.4-1.4V48l-1.4-1.4Z" transform="translate(-4.46 -8.09)"/></g><polygon points="56.99 45.03 56.99 56.33 52.99 56.33 52.99 46.53 51.59 45.03 56.99 45.03"/><path class="cls-2" d="M59.15,47a2.92,2.92,0,0,1,.9.2,3.51,3.51,0,0,1,.8.5,2.18,2.18,0,0,1,.5.8,2.12,2.12,0,0,1,0,1.8,3.51,3.51,0,0,1-.5.8,2.18,2.18,0,0,1-.8.5,2.13,2.13,0,0,1-1.8,0,3.51,3.51,0,0,1-.8-.5,2.18,2.18,0,0,1-.5-.8,2.48,2.48,0,0,1-.1-.9,2.92,2.92,0,0,1,.2-.9,3.51,3.51,0,0,1,.5-.8,2.18,2.18,0,0,1,.8-.5A1.88,1.88,0,0,1,59.15,47Z" transform="translate(-4.46 -8.09)"/><path d="M73.35,53a3.66,3.66,0,0,1,1.8.4,7.84,7.84,0,0,1,1.5,1,4,4,0,0,1,1,1.5,5.84,5.84,0,0,1,.4,1.8v6.6H74v-6.4a5.28,5.28,0,0,0-.1-1.3c-.1-.4-.2-.8-.3-1.1a1.34,1.34,0,0,0-.6-.7,1.14,1.14,0,0,0-.8-.3,1.75,1.75,0,0,0-1.4.7,3.67,3.67,0,0,0-.8,1.9v7.3H66v-9.8l-1.4-1.4h5.5V55a8.31,8.31,0,0,1,1.4-1.3A4,4,0,0,1,73.35,53Z" transform="translate(-4.46 -8.09)"/><path d="M5.16,19.36A3.75,3.75,0,0,0,5.58,21a6.63,6.63,0,0,0,1.08,1.6,6.14,6.14,0,0,0,1.53,1.21,3.54,3.54,0,0,0,1.72.47,4.48,4.48,0,0,0,1.38-.21,3.51,3.51,0,0,0,1.12-.59,2.7,2.7,0,0,0,.75-.9,2.41,2.41,0,0,0,.28-1.17,2.38,2.38,0,0,0-.25-1.1,2.42,2.42,0,0,0-.68-.81,3.64,3.64,0,0,0-1-.57,8.56,8.56,0,0,0-1.29-.37,13.91,13.91,0,0,1-2.75-1,5.56,5.56,0,0,1-2-1.64,5.24,5.24,0,0,1-.73-1.29,4.26,4.26,0,0,1-.25-1.46,4.49,4.49,0,0,1,.45-2A5.27,5.27,0,0,1,6.15,9.59,5.73,5.73,0,0,1,8,8.49a6.05,6.05,0,0,1,2.23-.4,6.27,6.27,0,0,1,2.13.36,5.83,5.83,0,0,1,1.77,1l1.65-1.37v5.55a12.17,12.17,0,0,0-1.62-1.9,9.33,9.33,0,0,0-1.76-1.33,4.2,4.2,0,0,0-2.17-.6,2.45,2.45,0,0,0-1.67.54,1.85,1.85,0,0,0-.63,1.49,1.78,1.78,0,0,0,.64,1.44,4.49,4.49,0,0,0,1.66.78c.95.27,1.83.54,2.64.82a5.19,5.19,0,0,1,2.09,1.31,6.25,6.25,0,0,1,1.24,1.74A4.91,4.91,0,0,1,16.61,20a5.37,5.37,0,0,1-.5,2.31,5.82,5.82,0,0,1-1.36,1.89,6.41,6.41,0,0,1-2,1.27,6.51,6.51,0,0,1-2.5.48,8.2,8.2,0,0,1-1.32-.11,6,6,0,0,1-1.34-.41,10,10,0,0,1-1.44-.75,13.46,13.46,0,0,1-1.6-1.16v-4.2Z" transform="translate(-4.46 -8.09)"/><path d="M24.26,14.46a6.09,6.09,0,0,1,2.38.44,4.68,4.68,0,0,1,1.7,1.2,4.93,4.93,0,0,1,1,1.79,7.09,7.09,0,0,1,.34,2.2v.27a1.53,1.53,0,0,1,0,.3H22.71c0,.55.08,1.05.14,1.5a4.54,4.54,0,0,0,.3,1.17,1.83,1.83,0,0,0,.57.75,1.73,1.73,0,0,0,1,.26,4,4,0,0,0,3.1-1.58l.85.85a5.74,5.74,0,0,1-1.92,1.54,5.41,5.41,0,0,1-2.48.56,5.6,5.6,0,0,1-2.2-.43,5.53,5.53,0,0,1-1.78-1.22,5.94,5.94,0,0,1-1.22-1.78,5.58,5.58,0,0,1,0-4.39,5.74,5.74,0,0,1,1.22-1.79,5.48,5.48,0,0,1,1.78-1.2A5.61,5.61,0,0,1,24.26,14.46Zm1.4,5c0-.53-.07-1-.11-1.5a7.26,7.26,0,0,0-.2-1.21,2,2,0,0,0-.39-.81.85.85,0,0,0-.7-.3.92.92,0,0,0-.72.3,2.08,2.08,0,0,0-.44.81A6.93,6.93,0,0,0,22.85,18c-.06.47-.1,1-.14,1.5Z" transform="translate(-4.46 -8.09)"/><path d="M37.91,14.46a6.63,6.63,0,0,1,2.42.44,5.89,5.89,0,0,1,1.92,1.2,5.59,5.59,0,0,1,1.28,1.79,5.47,5.47,0,0,1,0,4.39,5.77,5.77,0,0,1-1.28,1.78,5.94,5.94,0,0,1-1.92,1.22,6.62,6.62,0,0,1-2.42.43,6.69,6.69,0,0,1-2.44-.43,5.94,5.94,0,0,1-1.92-1.22,5.58,5.58,0,0,1-1.27-1.78,5.36,5.36,0,0,1,0-4.39,5.41,5.41,0,0,1,1.27-1.79,5.89,5.89,0,0,1,1.92-1.2A6.7,6.7,0,0,1,37.91,14.46Zm0,10.05a1.24,1.24,0,0,0,.9-.35,2.57,2.57,0,0,0,.62-.95,6.81,6.81,0,0,0,.35-1.4,13.21,13.21,0,0,0,.11-1.72,13.53,13.53,0,0,0-.11-1.74,6.91,6.91,0,0,0-.35-1.41,2.57,2.57,0,0,0-.62-1,1.24,1.24,0,0,0-.9-.35A1.34,1.34,0,0,0,37,16a2.57,2.57,0,0,0-.62,1A6.32,6.32,0,0,0,36,18.35a13.53,13.53,0,0,0-.11,1.74A13.21,13.21,0,0,0,36,21.81a6.22,6.22,0,0,0,.35,1.4,2.57,2.57,0,0,0,.62.95A1.34,1.34,0,0,0,37.91,24.51Z" transform="translate(-4.46 -8.09)"/><path d="M52.11,8.39v18.8A4.42,4.42,0,0,1,51.74,29,4.67,4.67,0,0,1,50,31.1a4.58,4.58,0,0,1-2.65.81l-1.73-1.45h.93a1.27,1.27,0,0,0,1-.41A1.42,1.42,0,0,0,48,29V9.81L46.61,8.39Z" transform="translate(-4.46 -8.09)"/><polygon points="55.6 6.38 55.6 17.6 51.55 17.6 51.55 7.8 50.13 6.38 55.6 6.38"/><path class="cls-2" d="M57.76,8.36a2.44,2.44,0,0,1,.92.19,2.64,2.64,0,0,1,.76.5A2.49,2.49,0,0,1,60,9.8a2.43,2.43,0,0,1,.19.94,2.33,2.33,0,0,1-.19.92,2.46,2.46,0,0,1-1.27,1.27,2.43,2.43,0,0,1-.92.18,2.35,2.35,0,0,1-2.37-2.37,2.42,2.42,0,0,1,.18-.94,2.34,2.34,0,0,1,.52-.75,2.46,2.46,0,0,1,.75-.5A2.33,2.33,0,0,1,57.76,8.36Z" transform="translate(-4.46 -8.09)"/><path d="M70.69,14.46a4.85,4.85,0,0,1,3.37,1.37,4.72,4.72,0,0,1,1,1.5,4.55,4.55,0,0,1,.43,1.83v6.55H71.46V19.29a8.07,8.07,0,0,0-.1-1.33A3.61,3.61,0,0,0,71,16.88a2,2,0,0,0-.57-.73,1.29,1.29,0,0,0-.81-.26,1.84,1.84,0,0,0-1.42.72,3.85,3.85,0,0,0-.83,1.85v7.25h-4V15.89l-1.42-1.43h5.47v1.75a6.52,6.52,0,0,1,1.4-1.27A3.36,3.36,0,0,1,70.69,14.46Z" transform="translate(-4.46 -8.09)"/></svg>